# Blender v2.69 (sub 0) OBJ File: ''
# www.blender.org
mtllib gem.mtl
o Sphere_Sphere.001
v -0.707107 0.707107 0.000000
v -1.000000 -0.000000 0.000000
v -0.707107 -0.707107 0.000000
v 0.000000 -1.000000 0.000000
v -0.500000 0.707107 -0.500000
v -0.707107 -0.000000 -0.707107
v -0.500000 -0.707107 -0.500000
v 0.000000 0.707107 -0.707107
v 0.000000 -0.000000 -1.000000
v 0.000000 -0.707107 -0.707107
v 0.500000 0.707107 -0.500000
v 0.707107 -0.000000 -0.707107
v 0.500000 -0.707107 -0.500000
v 0.707107 0.707107 0.000000
v 1.000000 -0.000000 0.000000
v 0.707107 -0.707107 0.000000
v 0.500000 0.707107 0.500000
v 0.707107 -0.000000 0.707107
v 0.500000 -0.707107 0.500000
v -0.000000 0.707107 0.707107
v -0.000000 -0.000000 1.000000
v -0.000000 -0.707107 0.707107
v 0.000000 1.000000 0.000000
v -0.500000 0.707107 0.500000
v -0.707107 -0.000000 0.707107
v -0.500000 -0.707107 0.500000
vn -0.862856 -0.357407 -0.357407
vn -0.862856 0.357407 -0.357407
vn -0.357407 -0.357407 -0.862856
vn -0.357407 0.357407 -0.862856
vn 0.357407 -0.357407 -0.862856
vn 0.357407 0.357407 -0.862856
vn 0.862856 -0.357407 -0.357407
vn 0.862856 0.357407 -0.357407
vn 0.862856 -0.357407 0.357407
vn 0.862856 0.357407 0.357407
vn 0.357406 -0.357407 0.862856
vn 0.357406 0.357407 0.862856
vn -0.357407 -0.357407 0.862856
vn -0.357407 0.357407 0.862856
vn -0.377964 -0.912487 -0.156558
vn -0.377964 0.912487 -0.156558
vn -0.156558 -0.912487 -0.377964
vn -0.156558 0.912487 -0.377965
vn 0.156558 -0.912487 -0.377965
vn 0.156558 0.912487 -0.377965
vn 0.377964 -0.912487 -0.156558
vn 0.377964 0.912487 -0.156558
vn 0.377964 -0.912487 0.156558
vn 0.377964 0.912487 0.156558
vn 0.156558 -0.912487 0.377964
vn 0.156558 0.912487 0.377965
vn -0.156558 -0.912487 0.377964
vn -0.156558 0.912487 0.377965
vn -0.377964 -0.912487 0.156558
vn -0.862856 -0.357407 0.357406
vn -0.862856 0.357407 0.357406
vn -0.377964 0.912487 0.156558
vn 0.357407 -0.357407 0.862856
vn 0.357407 0.357407 0.862856
usemtl Material.002
s off
f 3//1 2//1 7//1
f 2//2 1//2 6//2
f 7//3 6//3 10//3
f 6//4 5//4 9//4
f 10//5 9//5 13//5
f 9//6 8//6 12//6
f 13//7 12//7 16//7
f 12//8 11//8 15//8
f 16//9 15//9 19//9
f 15//10 14//10 18//10
f 19//11 18//11 22//11
f 18//12 17//12 21//12
f 22//13 21//13 26//13
f 21//14 20//14 25//14
f 4//15 3//15 7//15
f 1//16 23//16 5//16
f 4//17 7//17 10//17
f 5//18 23//18 8//18
f 4//19 10//19 13//19
f 8//20 23//20 11//20
f 4//21 13//21 16//21
f 11//22 23//22 14//22
f 4//23 16//23 19//23
f 14//24 23//24 17//24
f 4//25 19//25 22//25
f 17//26 23//26 20//26
f 4//27 22//27 26//27
f 20//28 23//28 24//28
f 4//29 26//29 3//29
f 26//30 25//30 3//30
f 25//31 24//31 2//31
f 24//32 23//32 1//32
f 2//1 6//1 7//1
f 1//2 5//2 6//2
f 6//3 9//3 10//3
f 5//4 8//4 9//4
f 9//5 12//5 13//5
f 8//6 11//6 12//6
f 12//7 15//7 16//7
f 11//8 14//8 15//8
f 15//9 18//9 19//9
f 14//10 17//10 18//10
f 18//33 21//33 22//33
f 17//34 20//34 21//34
f 21//13 25//13 26//13
f 20//14 24//14 25//14
f 25//30 2//30 3//30
f 24//31 1//31 2//31
