# Blender v2.69 (sub 0) OBJ File: ''
# www.blender.org
mtllib flat-face.mtl
o Plane_Plane.001
v -1.000000 -0.000000 1.000000
v 1.000000 -0.000000 1.000000
v -1.000000 0.000000 -1.000000
v 1.000000 0.000000 -1.000000
v -0.930442 0.050000 0.930442
v 0.930442 0.050000 0.930442
v -0.930442 0.050000 -0.930442
v 0.930442 0.050000 -0.930442
vn 0.000000 -1.000000 -0.000000
vn 0.000000 1.000000 0.000000
vn -0.583676 0.811987 0.000000
vn 0.583677 0.811986 0.000000
vn 0.000000 0.811985 0.583678
vn 0.000000 0.811987 -0.583676
vn -0.583677 0.811986 0.000000
vn 0.583676 0.811987 0.000000
vn 0.000000 0.811986 0.583678
usemtl Material.001
s off
f 1//1 3//1 2//1
f 2//1 3//1 4//1
f 5//2 6//2 7//2
f 6//2 8//2 7//2
f 3//3 1//3 7//3
f 2//4 4//4 6//4
f 1//5 2//5 5//5
f 4//6 3//6 8//6
f 1//7 5//7 7//7
f 4//8 8//8 6//8
f 2//9 6//9 5//9
f 3//6 7//6 8//6
