# Blender v2.69 (sub 0) OBJ File: ''
# www.blender.org
mtllib rubix-face.mtl
o rubix-face
v -0.880000 0.000000 -0.880000
v -0.880000 -0.000000 0.880000
v -0.792000 0.200000 -0.792000
v 0.880000 0.000000 -0.880000
v 0.792000 0.200000 -0.792000
v 0.880000 -0.000000 0.880000
v -0.792000 0.200000 0.792000
v 0.792000 0.200000 0.792000
vn -0.915315 0.402739 0.000000
vn 0.000000 0.402739 -0.915315
vn 0.000000 0.402738 0.915315
vn 0.915315 0.402738 0.000000
vn -0.915315 0.402738 0.000000
vn 0.915315 0.402739 0.000000
vn 0.000000 1.000000 0.000000
usemtl None
s off
f 1//1 2//1 3//1
f 4//2 1//2 5//2
f 2//3 6//3 7//3
f 4//4 5//4 8//4
f 2//5 7//5 3//5
f 1//2 3//2 5//2
f 6//3 8//3 7//3
f 6//6 4//6 8//6
f 7//7 8//7 3//7
f 8//7 5//7 3//7
