# Blender v2.69 (sub 0) OBJ File: ''
# www.blender.org
mtllib axes.mtl
o Plane
v 0.150000 -0.025000 -0.043301
v 0.350000 0.000000 0.000000
v 0.150000 -0.025000 0.043301
v 0.150000 0.050000 0.000000
v -0.010000 0.000008 -10.000000
v 0.010000 0.000008 -10.000000
v -0.010000 -0.000008 10.000000
v 0.000018 10.000000 0.010002
v 0.000018 10.000000 -0.009998
v -0.000018 -10.000000 0.009998
v -10.000000 0.000011 0.009993
v -10.000000 0.000011 -0.010007
v 10.000000 -0.000011 0.010007
v 0.025000 0.400000 -0.043301
v 0.000000 0.600000 0.000000
v 0.025000 0.400000 0.043301
v -0.050000 0.400000 0.000000
v 0.000000 -0.000000 1.100000
v 0.010000 -0.000008 10.000000
v -0.000018 -10.000000 -0.010002
v 10.000000 -0.000011 -0.009993
v -0.000008 -0.010000 -10.000000
v -0.000008 0.010000 -10.000000
v 0.000008 -0.010000 10.000000
v 0.025000 0.043301 0.900000
v 0.000000 0.000000 1.100000
v 0.025000 -0.043301 0.900000
v -0.050000 -0.000000 0.900000
v 0.000008 0.010000 10.000000
vn 0.124035 -0.992278 -0.000000
vn 0.124034 0.496137 -0.859339
vn 0.124034 0.496137 0.859339
vn -1.000000 0.000000 0.000000
vn 0.000000 -1.000000 -0.000001
vn -1.000000 0.000002 0.000000
vn -0.000001 -1.000000 -0.000000
vn 0.992278 0.124035 0.000000
vn -0.496137 0.124034 -0.859339
vn -0.496137 0.124034 0.859339
vn 0.000000 -1.000000 0.000000
vn 1.000000 0.000001 -0.000001
vn 0.992278 0.000001 0.124035
vn -0.496137 0.859339 0.124034
vn -0.496136 -0.859340 0.124034
vn -0.000002 0.000000 -1.000000
usemtl Material.003
s off
f 1//1 2//1 3//1
f 2//2 1//2 4//2
f 3//3 2//3 4//3
f 4//4 1//4 3//4
f 5//5 6//5 7//5
f 8//6 9//6 10//6
f 11//7 12//7 13//7
f 14//8 15//8 16//8
f 17//9 15//9 14//9
f 16//10 15//10 17//10
f 17//11 14//11 16//11
f 6//5 19//5 7//5
f 9//6 20//6 10//6
f 12//7 21//7 13//7
f 22//12 23//12 24//12
f 25//13 26//13 27//13
f 28//14 26//14 25//14
f 27//15 26//15 28//15
f 28//16 25//16 27//16
f 23//12 29//12 24//12
