# Blender v2.69 (sub 0) OBJ File: ''
# www.blender.org
mtllib box.mtl
o box.001
v -0.500000 0.500000 0.500000
v -0.500000 0.500000 -0.500000
v -0.500000 -0.500000 0.500000
v 0.500000 0.500000 -0.500000
v -0.500000 -0.500000 -0.500000
v 0.500000 0.500000 0.500000
v 0.500000 -0.500000 -0.500000
v 0.500000 -0.500000 0.500000
vn -1.000000 -0.000000 0.000000
vn 0.000000 0.000000 -1.000000
vn 1.000000 0.000000 0.000000
vn 0.000000 -0.000000 1.000000
vn 0.000000 -1.000000 -0.000000
vn 0.000000 1.000000 0.000000
usemtl Material.002
s off
f 1//1 2//1 3//1
f 2//2 4//2 5//2
f 4//3 6//3 7//3
f 6//4 1//4 8//4
f 3//5 5//5 8//5
f 4//6 1//6 6//6
f 2//1 5//1 3//1
f 4//2 7//2 5//2
f 6//3 8//3 7//3
f 1//4 3//4 8//4
f 5//5 7//5 8//5
f 2//6 1//6 4//6
