v 1.000000 0.000000 1.000000
v 0.880000 0.000000 1.000000
v -0.880000 0.000000 1.000000
v -1.000000 0.000000 1.000000
v 1.000000 0.000000 0.880000
v 0.880000 0.000000 0.880000
v -0.880000 0.000000 0.880000
v -1.000000 0.000000 0.880000
v 1.000000 0.000000 -0.880000
v 0.880000 0.000000 -0.880000
v -0.880000 0.000000 -0.880000
v -1.000000 0.000000 -0.880000
v 1.000000 0.000000 -1.000000
v 0.880000 0.000000 -1.000000
v -0.880000 0.000000 -1.000000
v -1.000000 0.000000 -1.000000
v 0.792000 0.200000 0.792000
v -0.792000 0.200000 0.792000
v 0.792000 0.200000 -0.792000
v -0.792000 0.200000 -0.792000

c 0.4 0.4 0.4 1.0
c 0.1 0.1 0.1 1.0
c 1.0 1.0 1.0 1.0

vn 0.000000 1.000000 0.000000
vn 0.915315 0.402739 0.000000
vn -0.915315 0.402739 0.000000
vn 0.000000 0.402739 -0.915315
vn 0.000000 0.402739 0.915315
vn -0.915315 0.402738 0.000000
s off

f 4//1/2  3//1/2  8//1/1
f 3//1/2  2//1/2  7//1/1
f 2//1/2  1//1/2  6//1/1
f 8//1/2  7//1/2  12//1/1
f 6//1/2  5//1/2  10//1/1
f 12//1/2 11//1/2 16//1/1
f 11//1/2 10//1/2 15//1/1
f 10//1/2 9//1/2  14//1/1
f 3//1/2  7//1/2  8//1/1
f 2//1/2  6//1/2  7//1/1
f 1//1/2  5//1/2  6//1/1
f 7//1/2  11//1/2 12//1/1
f 5//1/2  9//1/2  10//1/1
f 11//1/2 15//1/2 16//1/1
f 10//1/2 14//1/2 15//1/1
f 9//1/2  13//1/2 14//1/1

f 11//3/1 7//3/1  20//3/1
f 10//4/1 11//4/1 19//4/1
f 7//5/1  6//5/1  18//5/1
f 10//2/1 19//2/1 17//2/1
f 7//6/1  18//6/1 20//6/1
f 11//4/1 20//4/1 19//4/1
f 6//5/1  17//5/1 18//5/1
f 6//2/1  10//2/1 17//2/1

f 18//1/3 17//1/3 20//1/3
f 17//1/3 19//1/3 20//1/3